<svg xmlns="http://www.w3.org/2000/svg" xmlns:xlink="http://www.w3.org/1999/xlink" width="44" zoomAndPan="magnify" viewBox="0 0 33 32.999998" height="44" preserveAspectRatio="xMidYMid meet" version="1.0"><defs><clipPath id="b340dd81ec"><path d="M 1.949219 1.949219 L 31.199219 1.949219 L 31.199219 31.199219 L 1.949219 31.199219 Z M 1.949219 1.949219 " clip-rule="nonzero"/></clipPath></defs><g clip-path="url(#b340dd81ec)"><path fill="#4a6244" d="M 16.5 1.949219 C 8.464844 1.949219 1.949219 8.464844 1.949219 16.5 C 1.949219 24.535156 8.464844 31.046875 16.5 31.046875 C 24.535156 31.046875 31.046875 24.535156 31.046875 16.5 C 31.046875 8.464844 24.535156 1.949219 16.5 1.949219 Z M 16.5 27.246094 C 10.566406 27.246094 5.757812 22.433594 5.757812 16.5 C 5.757812 14.382812 6.367188 12.410156 7.425781 10.75 L 22.25 25.574219 C 20.589844 26.632812 18.617188 27.246094 16.5 27.246094 Z M 25.574219 22.253906 L 10.75 7.425781 C 12.414062 6.367188 14.386719 5.757812 16.5 5.757812 C 22.433594 5.757812 27.246094 10.566406 27.246094 16.5 C 27.246094 18.621094 26.632812 20.59375 25.574219 22.253906 Z M 25.574219 22.253906 " fill-opacity="1" fill-rule="nonzero"/></g></svg>