<svg xmlns="http://www.w3.org/2000/svg" xmlns:xlink="http://www.w3.org/1999/xlink" width="44" zoomAndPan="magnify" viewBox="0 0 33 32.999998" height="44" preserveAspectRatio="xMidYMid meet" version="1.0"><defs><clipPath id="c0f6d63a7d"><path d="M 2.398438 2.398438 L 30.898438 2.398438 L 30.898438 30.898438 L 2.398438 30.898438 Z M 2.398438 2.398438 " clip-rule="nonzero"/></clipPath></defs><rect x="-3.3" width="39.6" fill="#ffffff" y="-3.3" height="39.599998" fill-opacity="1"/><rect x="-3.3" width="39.6" fill="#ffffff" y="-3.3" height="39.599998" fill-opacity="1"/><g clip-path="url(#c0f6d63a7d)"><path fill="#4a6244" d="M 16.527344 2.457031 C 13.648438 2.457031 10.90625 3.320312 8.554688 4.945312 L 6.230469 2.621094 C 6.070312 2.460938 5.828125 2.410156 5.617188 2.5 C 5.40625 2.585938 5.269531 2.792969 5.269531 3.019531 L 5.269531 5.269531 L 3.019531 5.269531 C 2.792969 5.269531 2.585938 5.40625 2.5 5.617188 C 2.410156 5.828125 2.460938 6.070312 2.621094 6.230469 L 4.945312 8.554688 C 3.320312 10.90625 2.457031 13.648438 2.457031 16.527344 C 2.457031 24.285156 8.769531 30.59375 16.527344 30.59375 C 24.285156 30.59375 30.59375 24.285156 30.59375 16.527344 C 30.59375 8.769531 24.285156 2.457031 16.527344 2.457031 Z M 12.972656 13.769531 C 12.378906 14.53125 12.023438 15.488281 12.023438 16.527344 C 12.023438 19.007812 14.042969 21.027344 16.527344 21.027344 C 19.007812 21.027344 21.027344 19.007812 21.027344 16.527344 C 21.027344 14.042969 19.007812 12.023438 16.527344 12.023438 C 15.488281 12.023438 14.53125 12.378906 13.769531 12.972656 L 10.578125 9.78125 C 12.167969 8.378906 14.246094 7.519531 16.527344 7.519531 C 21.492188 7.519531 25.53125 11.5625 25.53125 16.527344 C 25.53125 21.492188 21.492188 25.53125 16.527344 25.53125 C 11.5625 25.53125 7.519531 21.492188 7.519531 16.527344 C 7.519531 14.246094 8.378906 12.167969 9.78125 10.578125 Z M 15.441406 16.238281 C 15.417969 16.332031 15.398438 16.425781 15.398438 16.527344 C 15.398438 17.148438 15.90625 17.652344 16.527344 17.652344 C 17.148438 17.652344 17.652344 17.148438 17.652344 16.527344 C 17.652344 15.90625 17.148438 15.398438 16.527344 15.398438 C 16.425781 15.398438 16.332031 15.417969 16.238281 15.441406 L 14.574219 13.777344 C 15.125 13.382812 15.796875 13.148438 16.527344 13.148438 C 18.386719 13.148438 19.902344 14.664062 19.902344 16.527344 C 19.902344 18.386719 18.386719 19.902344 16.527344 19.902344 C 14.664062 19.902344 13.148438 18.386719 13.148438 16.527344 C 13.148438 15.796875 13.382812 15.125 13.777344 14.574219 Z M 8.085938 6.066406 L 8.085938 7.289062 L 6.394531 5.601562 L 6.394531 4.378906 Z M 5.601562 6.394531 L 7.289062 8.085938 L 6.066406 8.085938 L 4.378906 6.394531 Z M 16.527344 29.46875 C 9.386719 29.46875 3.582031 23.664062 3.582031 16.527344 C 3.582031 13.886719 4.375 11.367188 5.859375 9.210938 L 8.414062 9.210938 L 8.988281 9.78125 C 7.382812 11.574219 6.394531 13.933594 6.394531 16.527344 C 6.394531 22.113281 10.941406 26.65625 16.527344 26.65625 C 22.113281 26.65625 26.65625 22.113281 26.65625 16.527344 C 26.65625 10.941406 22.113281 6.394531 16.527344 6.394531 C 13.933594 6.394531 11.574219 7.382812 9.78125 8.988281 L 9.210938 8.414062 L 9.210938 5.859375 C 11.367188 4.375 13.886719 3.582031 16.527344 3.582031 C 23.664062 3.582031 29.46875 9.386719 29.46875 16.527344 C 29.46875 23.664062 23.664062 29.46875 16.527344 29.46875 Z M 16.527344 29.46875 " fill-opacity="1" fill-rule="nonzero"/></g></svg>