<svg xmlns="http://www.w3.org/2000/svg" xmlns:xlink="http://www.w3.org/1999/xlink" width="44" zoomAndPan="magnify" viewBox="0 0 33 32.999998" height="44" preserveAspectRatio="xMidYMid meet" version="1.0"><defs><clipPath id="1ef8b50ed4"><path d="M 1.242188 1.605469 L 31.992188 1.605469 L 31.992188 31.605469 L 1.242188 31.605469 Z M 1.242188 1.605469 " clip-rule="nonzero"/></clipPath></defs><g clip-path="url(#1ef8b50ed4)"><path fill="#e7cc9c" d="M 29.300781 6.640625 C 29.53125 6.507812 29.828125 6.585938 29.960938 6.820312 C 30.09375 7.050781 30.015625 7.347656 29.78125 7.480469 L 27.480469 8.808594 C 27.25 8.945312 26.953125 8.863281 26.820312 8.632812 C 26.683594 8.398438 26.765625 8.101562 26.996094 7.96875 Z M 20.691406 10.003906 L 22.972656 13.953125 C 23.3125 13.648438 23.546875 13.253906 23.664062 12.824219 C 23.816406 12.257812 23.753906 11.632812 23.445312 11.078125 L 23.429688 11.058594 C 23.109375 10.5 22.589844 10.125 22.015625 9.96875 C 21.585938 9.855469 21.128906 9.863281 20.691406 10.003906 Z M 15.464844 5.726562 L 15.453125 5.707031 L 15.148438 5.179688 C 15.0625 5.015625 15.046875 4.832031 15.09375 4.660156 C 15.140625 4.484375 15.253906 4.328125 15.417969 4.230469 L 15.421875 4.230469 C 15.589844 4.136719 15.78125 4.117188 15.957031 4.164062 C 16.132812 4.210938 16.289062 4.324219 16.386719 4.488281 L 19.570312 10.003906 L 19.582031 10.027344 L 19.59375 10.046875 L 22.390625 14.890625 L 22.398438 14.90625 L 22.410156 14.921875 L 25.59375 20.441406 C 25.691406 20.609375 25.710938 20.800781 25.664062 20.976562 C 25.617188 21.144531 25.511719 21.292969 25.359375 21.390625 L 25.3125 21.417969 C 25.152344 21.503906 24.96875 21.519531 24.796875 21.472656 C 24.632812 21.429688 24.480469 21.324219 24.382812 21.171875 C 24.375 21.152344 24.363281 21.132812 24.351562 21.117188 L 24.066406 20.625 L 24.066406 20.621094 Z M 8.390625 14.984375 C 9.511719 14.109375 10.636719 12.984375 11.761719 11.613281 C 12.851562 10.285156 13.941406 8.722656 15.035156 6.925781 L 22.808594 20.390625 C 20.707031 20.441406 18.808594 20.605469 17.117188 20.882812 C 15.363281 21.171875 13.828125 21.582031 12.507812 22.117188 Z M 11.203125 23.921875 L 7.539062 26.019531 L 13.355469 31.34375 C 13.46875 31.402344 13.574219 31.414062 13.671875 31.378906 C 13.835938 31.320312 14.011719 31.164062 14.207031 30.902344 C 14.53125 30.476562 14.816406 30.089844 15.058594 29.742188 C 15.304688 29.394531 15.511719 29.082031 15.683594 28.800781 C 15.707031 28.765625 15.726562 28.730469 15.742188 28.699219 C 15.789062 28.601562 15.808594 28.527344 15.796875 28.472656 C 15.785156 28.433594 15.742188 28.382812 15.65625 28.332031 C 15.628906 28.316406 15.601562 28.300781 15.566406 28.28125 L 15.488281 28.246094 C 15.25 28.128906 15.066406 28.039062 14.808594 27.875 C 13.90625 27.304688 13.144531 26.652344 12.507812 25.910156 C 11.992188 25.304688 11.558594 24.644531 11.203125 23.921875 Z M 2.40625 19.964844 C 2.628906 20.324219 4.84375 24.171875 5.144531 24.707031 C 5.152344 24.71875 5.164062 24.734375 5.171875 24.75 L 5.175781 24.761719 L 5.179688 24.765625 C 5.355469 25.074219 5.640625 25.277344 5.960938 25.363281 C 6.28125 25.453125 6.632812 25.417969 6.941406 25.242188 L 11.640625 22.550781 L 7.578125 15.519531 L 2.894531 18.222656 C 2.585938 18.402344 2.378906 18.6875 2.292969 19.007812 C 2.210938 19.320312 2.242188 19.664062 2.40625 19.964844 Z M 4.035156 24.726562 C 3.644531 24.824219 3.238281 24.8125 2.863281 24.703125 C 2.335938 24.550781 1.863281 24.199219 1.5625 23.683594 L 1.5625 23.679688 C 1.265625 23.164062 1.199219 22.578125 1.328125 22.042969 C 1.421875 21.660156 1.613281 21.308594 1.894531 21.019531 Z M 23.898438 1.878906 L 22.722656 4.261719 C 22.605469 4.503906 22.703125 4.792969 22.945312 4.914062 C 23.183594 5.03125 23.476562 4.933594 23.59375 4.691406 L 24.769531 2.308594 C 24.886719 2.070312 24.789062 1.777344 24.550781 1.65625 C 24.308594 1.539062 24.015625 1.636719 23.898438 1.878906 Z M 31.269531 13.570312 C 31.539062 13.585938 31.742188 13.816406 31.722656 14.085938 C 31.707031 14.351562 31.476562 14.554688 31.207031 14.539062 L 28.558594 14.367188 C 28.289062 14.347656 28.085938 14.117188 28.101562 13.847656 C 28.117188 13.582031 28.351562 13.378906 28.617188 13.394531 Z M 31.269531 13.570312 " fill-opacity="1" fill-rule="evenodd"/></g></svg>