<svg xmlns="http://www.w3.org/2000/svg" xmlns:xlink="http://www.w3.org/1999/xlink" width="44" zoomAndPan="magnify" viewBox="0 0 33 32.999998" height="44" preserveAspectRatio="xMidYMid meet" version="1.0"><defs><clipPath id="9d1ec11754"><path d="M 3.300781 1.199219 L 29.550781 1.199219 L 29.550781 29.699219 L 3.300781 29.699219 Z M 3.300781 1.199219 " clip-rule="nonzero"/></clipPath></defs><g clip-path="url(#9d1ec11754)"><path fill="#4a6244" d="M 22.054688 13.777344 L 22.121094 13.832031 C 22.160156 13.863281 22.203125 13.890625 22.242188 13.921875 L 22.429688 14.050781 L 22.492188 14.089844 C 22.835938 14.308594 23.21875 14.476562 23.625 14.582031 C 24.433594 14.804688 25.339844 14.769531 26.140625 14.484375 C 26.945312 14.203125 27.628906 13.703125 28.210938 13.148438 C 28.285156 13.078125 28.359375 13.007812 28.425781 12.9375 C 28.496094 12.863281 28.566406 12.789062 28.632812 12.714844 C 28.765625 12.566406 28.886719 12.410156 29.003906 12.246094 C 29.121094 12.085938 29.226562 11.917969 29.332031 11.75 C 29.433594 11.582031 29.527344 11.410156 29.625 11.242188 L 29.660156 11.179688 C 29.671875 11.15625 29.679688 11.132812 29.6875 11.109375 C 29.714844 10.96875 29.628906 10.835938 29.492188 10.804688 C 28.75 10.644531 28.027344 10.558594 27.289062 10.488281 C 27.199219 10.480469 27.105469 10.472656 27.015625 10.460938 C 26.921875 10.457031 26.828125 10.445312 26.734375 10.4375 C 26.640625 10.429688 26.546875 10.425781 26.453125 10.417969 L 26.167969 10.402344 L 25.882812 10.402344 C 25.789062 10.40625 25.691406 10.40625 25.597656 10.414062 C 25.5 10.421875 25.40625 10.429688 25.308594 10.441406 C 25.214844 10.453125 25.121094 10.46875 25.027344 10.484375 C 24.648438 10.558594 24.285156 10.691406 23.941406 10.863281 C 23.710938 10.972656 23.492188 11.097656 23.28125 11.238281 C 23.289062 11.226562 23.292969 11.214844 23.296875 11.203125 C 23.410156 10.910156 23.523438 10.617188 23.628906 10.328125 C 23.730469 10.03125 23.828125 9.734375 23.921875 9.4375 C 23.984375 9.210938 24.046875 8.984375 24.105469 8.757812 C 24.191406 8.757812 24.292969 8.757812 24.40625 8.742188 C 24.5 8.730469 24.597656 8.714844 24.695312 8.695312 C 24.789062 8.675781 24.886719 8.652344 24.980469 8.625 C 25.074219 8.597656 25.167969 8.5625 25.261719 8.53125 C 25.632812 8.386719 25.980469 8.1875 26.300781 7.941406 C 26.617188 7.695312 26.902344 7.402344 27.144531 7.074219 C 27.386719 6.75 27.578125 6.382812 27.691406 5.988281 C 27.808594 5.597656 27.847656 5.1875 27.847656 4.792969 C 27.84375 4.394531 27.808594 4.011719 27.761719 3.632812 C 27.75 3.539062 27.738281 3.441406 27.726562 3.347656 C 27.710938 3.253906 27.695312 3.160156 27.683594 3.066406 C 27.664062 2.972656 27.648438 2.878906 27.632812 2.785156 C 27.609375 2.691406 27.59375 2.597656 27.574219 2.503906 C 27.484375 2.132812 27.382812 1.753906 27.234375 1.386719 C 27.183594 1.257812 27.042969 1.1875 26.910156 1.226562 L 26.835938 1.25 L 26.550781 1.328125 C 26.460938 1.359375 26.367188 1.390625 26.273438 1.425781 C 26.183594 1.464844 26.089844 1.5 26 1.539062 C 25.910156 1.582031 25.820312 1.621094 25.730469 1.667969 C 25.378906 1.851562 25.054688 2.085938 24.75 2.347656 C 24.144531 2.867188 23.617188 3.507812 23.292969 4.257812 C 23.128906 4.628906 23.007812 5.027344 22.945312 5.433594 C 22.882812 5.839844 22.878906 6.261719 22.941406 6.667969 C 23.003906 7.074219 23.132812 7.46875 23.324219 7.820312 C 23.371094 7.90625 23.417969 7.996094 23.476562 8.078125 C 23.53125 8.15625 23.582031 8.242188 23.648438 8.316406 C 23.679688 8.355469 23.710938 8.390625 23.742188 8.429688 C 23.773438 8.464844 23.800781 8.496094 23.84375 8.542969 C 23.882812 8.582031 23.917969 8.617188 23.957031 8.652344 C 23.824219 8.859375 23.699219 9.070312 23.574219 9.28125 C 23.410156 9.546875 23.25 9.808594 23.09375 10.074219 C 22.929688 10.332031 22.769531 10.59375 22.613281 10.855469 C 22.59375 10.882812 22.578125 10.910156 22.558594 10.9375 C 22.574219 10.8125 22.582031 10.691406 22.589844 10.566406 C 22.605469 10.183594 22.585938 9.792969 22.5 9.417969 C 22.476562 9.328125 22.457031 9.234375 22.429688 9.140625 C 22.402344 9.050781 22.371094 8.957031 22.339844 8.867188 C 22.308594 8.777344 22.269531 8.6875 22.238281 8.601562 L 22.121094 8.339844 L 21.996094 8.082031 C 21.949219 8 21.910156 7.914062 21.863281 7.832031 C 21.820312 7.75 21.773438 7.667969 21.730469 7.585938 C 21.6875 7.503906 21.640625 7.425781 21.597656 7.34375 C 21.238281 6.695312 20.875 6.0625 20.433594 5.449219 C 20.417969 5.429688 20.398438 5.410156 20.378906 5.394531 C 20.265625 5.308594 20.105469 5.332031 20.023438 5.441406 L 19.976562 5.5 C 19.859375 5.65625 19.742188 5.8125 19.628906 5.972656 C 19.515625 6.136719 19.402344 6.300781 19.300781 6.46875 C 19.199219 6.640625 19.105469 6.816406 19.019531 7 C 18.976562 7.089844 18.9375 7.179688 18.898438 7.273438 C 18.859375 7.367188 18.824219 7.460938 18.789062 7.554688 C 18.511719 8.3125 18.324219 9.136719 18.386719 9.984375 C 18.445312 10.835938 18.773438 11.679688 19.296875 12.335938 C 19.554688 12.664062 19.863281 12.949219 20.195312 13.179688 L 20.257812 13.222656 L 20.324219 13.261719 L 20.453125 13.339844 C 20.496094 13.367188 20.539062 13.394531 20.582031 13.417969 L 20.847656 13.550781 C 20.597656 13.917969 20.339844 14.285156 20.082031 14.648438 C 19.757812 15.105469 19.433594 15.566406 19.101562 16.019531 C 19.175781 15.800781 19.238281 15.574219 19.28125 15.347656 C 19.355469 14.980469 19.390625 14.601562 19.386719 14.222656 C 19.386719 13.84375 19.34375 13.464844 19.238281 13.097656 C 19.210938 13.007812 19.183594 12.917969 19.152344 12.828125 C 19.136719 12.785156 19.121094 12.738281 19.101562 12.695312 L 19.046875 12.5625 C 19.011719 12.476562 18.96875 12.390625 18.925781 12.308594 C 18.886719 12.222656 18.839844 12.140625 18.792969 12.054688 C 18.75 11.972656 18.703125 11.894531 18.652344 11.8125 C 18.605469 11.734375 18.554688 11.65625 18.503906 11.578125 C 18.40625 11.421875 18.300781 11.269531 18.199219 11.117188 C 17.992188 10.816406 17.789062 10.519531 17.566406 10.230469 C 17.34375 9.941406 17.105469 9.65625 16.847656 9.386719 C 16.835938 9.371094 16.820312 9.355469 16.800781 9.34375 C 16.683594 9.273438 16.527344 9.308594 16.453125 9.425781 L 16.414062 9.484375 L 16.109375 9.976562 L 15.964844 10.230469 C 15.917969 10.316406 15.871094 10.402344 15.828125 10.488281 C 15.648438 10.839844 15.507812 11.207031 15.394531 11.589844 C 15.167969 12.347656 15.019531 13.167969 15.117188 14.003906 C 15.167969 14.421875 15.277344 14.839844 15.457031 15.230469 C 15.628906 15.621094 15.875 15.984375 16.164062 16.289062 C 16.457031 16.597656 16.796875 16.84375 17.15625 17.027344 C 17.246094 17.074219 17.335938 17.117188 17.429688 17.152344 L 17.566406 17.210938 C 17.613281 17.226562 17.664062 17.242188 17.710938 17.257812 L 17.851562 17.300781 L 17.921875 17.324219 C 17.953125 17.332031 17.984375 17.339844 18.011719 17.34375 C 18.042969 17.351562 18.066406 17.359375 18.09375 17.363281 C 18.039062 17.433594 17.984375 17.507812 17.925781 17.578125 L 17.351562 18.285156 C 17.15625 18.515625 16.960938 18.75 16.769531 18.988281 C 16.574219 19.21875 16.378906 19.457031 16.1875 19.695312 L 15.589844 20.390625 C 15.386719 20.613281 15.183594 20.839844 14.976562 21.0625 C 15 21.027344 15.019531 20.992188 15.039062 20.957031 L 15.109375 20.824219 C 15.300781 20.472656 15.457031 20.101562 15.574219 19.714844 C 15.695312 19.332031 15.777344 18.929688 15.820312 18.527344 C 15.839844 18.324219 15.855469 18.121094 15.855469 17.914062 C 15.851562 17.710938 15.835938 17.507812 15.808594 17.304688 C 15.792969 17.203125 15.773438 17.101562 15.753906 17 C 15.734375 16.902344 15.703125 16.800781 15.679688 16.703125 C 15.621094 16.503906 15.550781 16.3125 15.472656 16.121094 C 15.320312 15.746094 15.132812 15.386719 14.9375 15.039062 C 14.835938 14.867188 14.738281 14.695312 14.632812 14.53125 C 14.578125 14.445312 14.527344 14.363281 14.46875 14.28125 L 14.386719 14.160156 L 14.300781 14.039062 C 14.066406 13.71875 13.804688 13.410156 13.515625 13.121094 C 13.507812 13.113281 13.496094 13.101562 13.484375 13.09375 C 13.371094 13.015625 13.21875 13.042969 13.140625 13.15625 L 13.101562 13.210938 C 12.863281 13.550781 12.621094 13.898438 12.40625 14.265625 C 12.1875 14.628906 12.003906 15.011719 11.84375 15.410156 C 11.683594 15.808594 11.542969 16.21875 11.4375 16.644531 C 11.328125 17.070312 11.257812 17.511719 11.246094 17.960938 C 11.234375 18.414062 11.285156 18.878906 11.414062 19.332031 C 11.539062 19.785156 11.757812 20.21875 12.050781 20.585938 C 12.34375 20.957031 12.714844 21.25 13.113281 21.457031 L 13.261719 21.53125 C 13.308594 21.558594 13.363281 21.574219 13.414062 21.597656 C 13.515625 21.636719 13.617188 21.679688 13.722656 21.703125 C 13.777344 21.71875 13.828125 21.734375 13.878906 21.746094 L 13.957031 21.769531 C 13.96875 21.769531 13.984375 21.773438 14.003906 21.777344 L 14.050781 21.789062 C 14.105469 21.800781 14.15625 21.804688 14.207031 21.8125 C 14.128906 21.882812 14.050781 21.953125 13.96875 22.023438 C 13.855469 22.125 13.738281 22.226562 13.621094 22.324219 C 13.386719 22.519531 13.144531 22.707031 12.898438 22.890625 C 11.910156 23.613281 10.804688 24.160156 9.738281 24.738281 C 9.804688 24.679688 9.886719 24.605469 9.96875 24.511719 L 10.070312 24.386719 L 10.164062 24.269531 C 10.226562 24.195312 10.285156 24.113281 10.34375 24.03125 C 10.371094 23.988281 10.402344 23.949219 10.425781 23.90625 L 10.507812 23.78125 C 10.71875 23.441406 10.894531 23.078125 11.035156 22.699219 C 11.179688 22.320312 11.285156 21.925781 11.351562 21.527344 C 11.382812 21.324219 11.40625 21.121094 11.417969 20.917969 C 11.429688 20.714844 11.425781 20.507812 11.410156 20.304688 C 11.402344 20.203125 11.386719 20.101562 11.371094 20 C 11.359375 19.898438 11.335938 19.796875 11.316406 19.695312 C 11.269531 19.496094 11.210938 19.300781 11.144531 19.105469 C 11.011719 18.71875 10.847656 18.351562 10.671875 17.996094 C 10.582031 17.816406 10.492188 17.640625 10.394531 17.46875 C 10.347656 17.382812 10.300781 17.292969 10.25 17.210938 L 10.175781 17.082031 L 10.09375 16.957031 C 9.878906 16.621094 9.640625 16.300781 9.367188 15.996094 C 9.355469 15.988281 9.347656 15.976562 9.335938 15.96875 C 9.230469 15.882812 9.074219 15.902344 8.992188 16.007812 L 8.949219 16.058594 C 8.6875 16.386719 8.429688 16.71875 8.191406 17.070312 C 7.953125 17.421875 7.746094 17.792969 7.566406 18.183594 C 7.382812 18.570312 7.214844 18.972656 7.082031 19.390625 C 6.953125 19.808594 6.855469 20.246094 6.816406 20.695312 C 6.777344 21.144531 6.800781 21.613281 6.902344 22.074219 C 7.003906 22.53125 7.195312 22.980469 7.46875 23.363281 C 7.738281 23.75 8.089844 24.066406 8.476562 24.292969 L 8.621094 24.378906 C 8.667969 24.40625 8.71875 24.425781 8.769531 24.449219 C 8.871094 24.496094 8.96875 24.542969 9.074219 24.578125 C 9.125 24.59375 9.175781 24.613281 9.226562 24.628906 L 9.304688 24.652344 C 9.316406 24.65625 9.332031 24.660156 9.347656 24.667969 L 9.394531 24.679688 C 9.523438 24.710938 9.640625 24.726562 9.734375 24.742188 C 9.734375 24.742188 9.730469 24.742188 9.730469 24.746094 C 9.59375 24.816406 9.460938 24.886719 9.328125 24.960938 C 9.195312 25.035156 9.0625 25.109375 8.933594 25.1875 C 8.664062 25.332031 8.402344 25.488281 8.144531 25.640625 C 7.878906 25.789062 7.617188 25.941406 7.351562 26.09375 C 7.085938 26.242188 6.820312 26.386719 6.554688 26.542969 C 6.289062 26.683594 6.023438 26.835938 5.757812 26.984375 C 5.488281 27.128906 5.21875 27.273438 4.949219 27.425781 C 4.679688 27.570312 4.410156 27.71875 4.140625 27.871094 C 3.871094 28.015625 3.597656 28.167969 3.332031 28.332031 L 3.328125 28.332031 C 3.308594 28.34375 3.296875 28.367188 3.300781 28.390625 C 3.308594 28.421875 3.335938 28.445312 3.371094 28.4375 C 3.679688 28.386719 3.984375 28.320312 4.289062 28.25 C 4.589844 28.171875 4.890625 28.085938 5.191406 28 C 5.488281 27.902344 5.785156 27.800781 6.082031 27.699219 C 6.371094 27.585938 6.664062 27.472656 6.953125 27.355469 C 7.238281 27.230469 7.523438 27.097656 7.808594 26.96875 C 8.085938 26.828125 8.367188 26.691406 8.644531 26.546875 C 8.917969 26.394531 9.191406 26.242188 9.460938 26.082031 C 9.589844 26 9.722656 25.914062 9.851562 25.828125 C 9.949219 25.765625 10.042969 25.703125 10.136719 25.636719 C 10.144531 25.6875 10.152344 25.742188 10.164062 25.796875 C 10.171875 25.832031 10.179688 25.867188 10.191406 25.898438 L 10.214844 25.988281 C 10.230469 26.042969 10.246094 26.097656 10.265625 26.152344 L 10.316406 26.320312 C 10.335938 26.375 10.355469 26.429688 10.378906 26.484375 L 10.445312 26.644531 L 10.476562 26.726562 L 10.515625 26.808594 C 10.710938 27.234375 10.976562 27.640625 11.300781 28.003906 C 11.941406 28.730469 12.835938 29.269531 13.792969 29.511719 C 13.910156 29.539062 14.03125 29.566406 14.152344 29.589844 C 14.269531 29.609375 14.390625 29.628906 14.511719 29.640625 C 14.75 29.671875 14.992188 29.683594 15.230469 29.683594 C 15.710938 29.683594 16.1875 29.636719 16.648438 29.558594 C 16.765625 29.542969 16.878906 29.519531 16.996094 29.496094 C 17.109375 29.472656 17.222656 29.445312 17.335938 29.417969 C 17.5625 29.359375 17.78125 29.289062 18 29.210938 C 18.21875 29.132812 18.429688 29.046875 18.640625 28.953125 C 18.746094 28.90625 18.851562 28.855469 18.953125 28.808594 L 19.261719 28.660156 L 19.320312 28.632812 C 19.339844 28.621094 19.359375 28.609375 19.378906 28.59375 C 19.484375 28.496094 19.492188 28.332031 19.398438 28.226562 C 19.101562 27.898438 18.789062 27.597656 18.472656 27.304688 C 18.15625 27.011719 17.824219 26.738281 17.492188 26.464844 C 17.15625 26.195312 16.8125 25.925781 16.445312 25.671875 L 16.167969 25.492188 C 16.074219 25.4375 15.980469 25.375 15.882812 25.324219 C 15.785156 25.269531 15.6875 25.21875 15.585938 25.167969 C 15.484375 25.121094 15.382812 25.078125 15.277344 25.035156 C 14.867188 24.867188 14.429688 24.757812 13.984375 24.699219 C 13.542969 24.636719 13.097656 24.617188 12.652344 24.648438 C 12.207031 24.675781 11.765625 24.75 11.34375 24.875 C 11.238281 24.90625 11.132812 24.9375 11.03125 24.976562 C 11.023438 24.980469 11.015625 24.980469 11.007812 24.984375 C 11.730469 24.402344 12.417969 23.769531 13.128906 23.183594 C 13.363281 22.984375 13.605469 22.789062 13.847656 22.597656 C 13.964844 22.496094 14.085938 22.398438 14.207031 22.300781 C 14.320312 22.210938 14.433594 22.121094 14.546875 22.03125 C 14.570312 22.117188 14.597656 22.214844 14.640625 22.320312 C 14.652344 22.351562 14.664062 22.382812 14.675781 22.414062 L 14.714844 22.492188 L 14.78125 22.640625 L 14.855469 22.789062 C 14.882812 22.835938 14.910156 22.882812 14.9375 22.929688 L 15.023438 23.074219 L 15.066406 23.144531 L 15.113281 23.210938 C 15.363281 23.582031 15.675781 23.921875 16.042969 24.203125 C 16.410156 24.488281 16.832031 24.714844 17.28125 24.867188 C 17.730469 25.015625 18.207031 25.09375 18.671875 25.09375 C 19.609375 25.101562 20.496094 24.828125 21.304688 24.472656 C 21.707031 24.292969 22.09375 24.082031 22.453125 23.835938 C 22.542969 23.773438 22.628906 23.707031 22.71875 23.644531 C 22.804688 23.582031 22.890625 23.515625 22.976562 23.449219 L 23.226562 23.246094 L 23.476562 23.039062 L 23.523438 22.996094 C 23.539062 22.984375 23.550781 22.972656 23.5625 22.957031 C 23.648438 22.847656 23.625 22.691406 23.515625 22.605469 C 23.1875 22.351562 22.851562 22.125 22.507812 21.910156 C 22.164062 21.699219 21.8125 21.503906 21.453125 21.316406 C 21.097656 21.125 20.726562 20.941406 20.34375 20.78125 C 20.152344 20.707031 19.953125 20.632812 19.753906 20.574219 C 19.550781 20.511719 19.347656 20.46875 19.140625 20.433594 C 18.722656 20.367188 18.300781 20.367188 17.882812 20.414062 C 17.464844 20.457031 17.050781 20.546875 16.65625 20.675781 C 16.359375 20.769531 16.074219 20.890625 15.800781 21.03125 C 15.875 20.972656 15.953125 20.914062 16.03125 20.851562 L 16.75 20.253906 C 16.984375 20.046875 17.222656 19.84375 17.453125 19.628906 C 17.675781 19.414062 17.902344 19.195312 18.121094 18.972656 L 18.761719 18.289062 C 18.824219 18.222656 18.882812 18.15625 18.941406 18.089844 L 18.992188 18.15625 L 19.089844 18.289062 C 19.125 18.332031 19.160156 18.375 19.195312 18.414062 L 19.304688 18.539062 L 19.363281 18.601562 L 19.421875 18.660156 C 19.734375 18.980469 20.101562 19.257812 20.515625 19.464844 C 20.929688 19.675781 21.382812 19.824219 21.851562 19.890625 C 22.324219 19.957031 22.804688 19.945312 23.261719 19.863281 C 24.1875 19.699219 25.007812 19.269531 25.738281 18.773438 C 26.101562 18.523438 26.441406 18.246094 26.75 17.9375 C 26.828125 17.859375 26.902344 17.78125 26.976562 17.703125 C 27.050781 17.621094 27.125 17.542969 27.195312 17.460938 L 27.40625 17.214844 L 27.609375 16.96875 L 27.652344 16.917969 C 27.664062 16.902344 27.671875 16.886719 27.679688 16.871094 C 27.746094 16.746094 27.695312 16.59375 27.570312 16.53125 C 27.203125 16.34375 26.832031 16.183594 26.453125 16.035156 C 26.078125 15.886719 25.695312 15.761719 25.308594 15.640625 C 24.921875 15.519531 24.527344 15.40625 24.121094 15.316406 C 23.917969 15.277344 23.710938 15.242188 23.5 15.21875 C 23.292969 15.195312 23.082031 15.191406 22.871094 15.195312 C 22.453125 15.207031 22.035156 15.285156 21.632812 15.402344 C 21.375 15.480469 21.121094 15.574219 20.875 15.683594 C 20.953125 15.574219 21.027344 15.464844 21.101562 15.351562 C 21.441406 14.835938 21.757812 14.3125 22.054688 13.777344 Z M 10.496094 25.492188 C 10.601562 25.492188 10.707031 25.484375 10.808594 25.480469 C 10.914062 25.476562 11.019531 25.476562 11.121094 25.472656 C 11.222656 25.472656 11.328125 25.472656 11.429688 25.472656 C 11.835938 25.472656 12.238281 25.496094 12.636719 25.53125 C 13.03125 25.574219 13.425781 25.628906 13.8125 25.707031 C 14.199219 25.785156 14.582031 25.878906 14.96875 25.96875 C 15.066406 25.992188 15.164062 26.019531 15.261719 26.039062 C 15.355469 26.066406 15.453125 26.089844 15.550781 26.113281 C 15.648438 26.144531 15.746094 26.167969 15.84375 26.195312 L 16.136719 26.285156 C 16.523438 26.410156 16.90625 26.570312 17.257812 26.785156 C 17.839844 27.140625 18.339844 27.628906 18.714844 28.195312 C 18.617188 28.210938 18.519531 28.230469 18.421875 28.246094 C 18.316406 28.265625 18.210938 28.285156 18.101562 28.300781 L 17.78125 28.347656 C 17.566406 28.375 17.355469 28.40625 17.144531 28.425781 C 17.039062 28.4375 16.9375 28.453125 16.832031 28.460938 C 16.726562 28.472656 16.621094 28.480469 16.515625 28.488281 C 16.097656 28.515625 15.683594 28.511719 15.277344 28.476562 C 15.070312 28.460938 14.871094 28.433594 14.671875 28.40625 C 14.570312 28.394531 14.472656 28.371094 14.371094 28.355469 L 14.082031 28.296875 C 13.695312 28.210938 13.320312 28.089844 12.960938 27.929688 C 12.601562 27.765625 12.253906 27.566406 11.929688 27.320312 C 11.605469 27.074219 11.300781 26.789062 11.019531 26.472656 L 10.964844 26.414062 L 10.914062 26.351562 L 10.808594 26.226562 C 10.773438 26.183594 10.738281 26.144531 10.707031 26.101562 L 10.605469 25.96875 C 10.574219 25.925781 10.539062 25.882812 10.503906 25.839844 L 10.457031 25.777344 L 10.414062 25.726562 C 10.371094 25.675781 10.316406 25.617188 10.257812 25.546875 C 10.285156 25.527344 10.316406 25.503906 10.34375 25.484375 C 10.402344 25.488281 10.453125 25.492188 10.496094 25.492188 Z M 14.078125 21.492188 L 13.902344 21.351562 C 13.820312 21.292969 13.75 21.222656 13.675781 21.160156 C 13.640625 21.125 13.601562 21.097656 13.566406 21.0625 L 13.46875 20.957031 C 13.203125 20.683594 12.988281 20.386719 12.832031 20.070312 C 12.675781 19.753906 12.578125 19.417969 12.527344 19.070312 C 12.476562 18.722656 12.46875 18.367188 12.488281 18 C 12.53125 17.265625 12.644531 16.503906 12.855469 15.75 C 12.960938 15.375 13.082031 14.996094 13.199219 14.613281 C 13.257812 14.421875 13.320312 14.230469 13.382812 14.039062 L 13.480469 13.753906 C 13.675781 13.898438 13.855469 14.070312 14.011719 14.253906 L 14.101562 14.363281 L 14.179688 14.472656 C 14.207031 14.511719 14.234375 14.546875 14.257812 14.585938 L 14.332031 14.707031 C 14.425781 14.863281 14.503906 15.035156 14.570312 15.207031 C 14.699219 15.550781 14.765625 15.921875 14.792969 16.285156 C 14.796875 16.378906 14.804688 16.46875 14.808594 16.558594 C 14.808594 16.652344 14.8125 16.742188 14.816406 16.832031 C 14.816406 17.011719 14.816406 17.191406 14.8125 17.371094 L 14.808594 17.90625 C 14.804688 17.996094 14.808594 18.085938 14.804688 18.171875 L 14.796875 18.441406 C 14.78125 18.800781 14.75 19.160156 14.707031 19.519531 C 14.660156 19.882812 14.601562 20.246094 14.535156 20.617188 C 14.519531 20.707031 14.503906 20.800781 14.484375 20.894531 C 14.464844 20.984375 14.453125 21.082031 14.429688 21.171875 L 14.402344 21.316406 C 14.394531 21.359375 14.382812 21.417969 14.378906 21.445312 C 14.375 21.507812 14.371094 21.578125 14.359375 21.664062 C 14.347656 21.675781 14.335938 21.6875 14.324219 21.699219 C 14.242188 21.636719 14.179688 21.578125 14.128906 21.53125 Z M 20.953125 13.171875 L 20.863281 13.066406 C 20.832031 13.03125 20.808594 12.992188 20.777344 12.957031 L 20.695312 12.847656 L 20.652344 12.792969 L 20.613281 12.738281 C 20.402344 12.445312 20.222656 12.140625 20.078125 11.832031 C 19.933594 11.523438 19.824219 11.207031 19.75 10.882812 C 19.675781 10.5625 19.636719 10.238281 19.625 9.90625 C 19.601562 9.246094 19.652344 8.550781 19.816406 7.863281 C 19.835938 7.777344 19.855469 7.691406 19.882812 7.605469 C 19.902344 7.519531 19.929688 7.433594 19.953125 7.347656 C 20 7.175781 20.054688 7.003906 20.105469 6.828125 L 20.1875 6.566406 C 20.214844 6.480469 20.246094 6.394531 20.273438 6.304688 C 20.296875 6.242188 20.316406 6.183594 20.339844 6.121094 C 20.730469 6.507812 21.042969 6.984375 21.234375 7.503906 C 21.261719 7.585938 21.289062 7.667969 21.3125 7.753906 C 21.335938 7.835938 21.355469 7.921875 21.378906 8.007812 C 21.394531 8.09375 21.410156 8.179688 21.421875 8.265625 L 21.457031 8.523438 L 21.480469 8.78125 C 21.484375 8.867188 21.488281 8.953125 21.496094 9.039062 C 21.496094 9.125 21.5 9.210938 21.507812 9.292969 C 21.507812 9.378906 21.511719 9.464844 21.515625 9.546875 C 21.527344 9.882812 21.550781 10.214844 21.558594 10.546875 C 21.5625 10.882812 21.558594 11.214844 21.535156 11.554688 C 21.515625 11.890625 21.476562 12.230469 21.425781 12.574219 C 21.417969 12.621094 21.410156 12.671875 21.402344 12.722656 C 21.28125 12.90625 21.160156 13.089844 21.035156 13.273438 Z M 20.832031 16.691406 C 21.183594 16.574219 21.539062 16.472656 21.894531 16.390625 C 22.25 16.308594 22.609375 16.246094 22.972656 16.175781 C 23.152344 16.140625 23.332031 16.109375 23.515625 16.078125 C 23.609375 16.0625 23.703125 16.050781 23.796875 16.039062 C 23.886719 16.023438 23.980469 16.015625 24.078125 16.003906 C 24.453125 15.964844 24.839844 15.964844 25.214844 16.023438 C 25.59375 16.078125 25.960938 16.199219 26.308594 16.363281 C 26.535156 16.472656 26.75 16.601562 26.953125 16.75 L 26.714844 16.914062 L 26.457031 17.082031 L 26.199219 17.242188 C 25.855469 17.457031 25.515625 17.664062 25.171875 17.851562 C 24.480469 18.226562 23.75 18.480469 23.03125 18.632812 C 22.671875 18.707031 22.3125 18.75 21.949219 18.746094 C 21.585938 18.738281 21.222656 18.691406 20.859375 18.59375 C 20.496094 18.496094 20.136719 18.351562 19.78125 18.167969 L 19.648438 18.097656 L 19.519531 18.023438 C 19.472656 17.996094 19.429688 17.972656 19.386719 17.945312 L 19.253906 17.863281 L 19.175781 17.816406 C 19.386719 17.578125 19.589844 17.339844 19.792969 17.09375 C 20.136719 16.945312 20.484375 16.808594 20.832031 16.691406 Z M 20.832031 16.691406 " fill-opacity="1" fill-rule="nonzero"/></g></svg>