<svg xmlns="http://www.w3.org/2000/svg" xmlns:xlink="http://www.w3.org/1999/xlink" width="44" zoomAndPan="magnify" viewBox="0 0 33 32.999998" height="44" preserveAspectRatio="xMidYMid meet" version="1.0"><defs><clipPath id="45375a2953"><path d="M 2.761719 3.601562 L 29.761719 3.601562 L 29.761719 30.601562 L 2.761719 30.601562 Z M 2.761719 3.601562 " clip-rule="nonzero"/></clipPath><clipPath id="e7456de3c5"><path d="M 4 10 L 18 10 L 18 30.601562 L 4 30.601562 Z M 4 10 " clip-rule="nonzero"/></clipPath></defs><g clip-path="url(#45375a2953)"><path fill="#4a6244" d="M 29.675781 17.058594 C 29.675781 17.941406 29.589844 18.816406 29.417969 19.683594 C 29.246094 20.550781 28.988281 21.390625 28.652344 22.207031 C 28.3125 23.023438 27.898438 23.800781 27.40625 24.535156 C 26.917969 25.269531 26.359375 25.949219 25.734375 26.574219 C 25.109375 27.199219 24.429688 27.753906 23.695312 28.246094 C 22.960938 28.738281 22.183594 29.152344 21.367188 29.492188 C 20.550781 29.828125 19.710938 30.082031 18.84375 30.257812 C 17.976562 30.429688 17.101562 30.515625 16.21875 30.515625 C 15.335938 30.515625 14.460938 30.429688 13.59375 30.257812 C 12.726562 30.082031 11.886719 29.828125 11.070312 29.492188 C 10.253906 29.152344 9.476562 28.738281 8.742188 28.246094 C 8.007812 27.753906 7.328125 27.199219 6.703125 26.574219 C 6.078125 25.949219 5.519531 25.269531 5.027344 24.535156 C 4.539062 23.800781 4.125 23.023438 3.785156 22.207031 C 3.445312 21.390625 3.191406 20.550781 3.019531 19.683594 C 2.847656 18.816406 2.761719 17.941406 2.761719 17.058594 C 2.761719 16.171875 2.847656 15.296875 3.019531 14.433594 C 3.191406 13.566406 3.445312 12.722656 3.785156 11.90625 C 4.125 11.089844 4.539062 10.316406 5.027344 9.582031 C 5.519531 8.847656 6.078125 8.167969 6.703125 7.542969 C 7.328125 6.917969 8.007812 6.359375 8.742188 5.867188 C 9.476562 5.378906 10.253906 4.960938 11.070312 4.625 C 11.886719 4.285156 12.726562 4.03125 13.59375 3.859375 C 14.460938 3.6875 15.335938 3.601562 16.21875 3.601562 C 17.101562 3.601562 17.976562 3.6875 18.84375 3.859375 C 19.710938 4.03125 20.550781 4.285156 21.367188 4.625 C 22.183594 4.960938 22.960938 5.378906 23.695312 5.867188 C 24.429688 6.359375 25.109375 6.917969 25.734375 7.542969 C 26.359375 8.167969 26.917969 8.847656 27.40625 9.582031 C 27.898438 10.316406 28.3125 11.089844 28.652344 11.90625 C 28.988281 12.722656 29.246094 13.566406 29.417969 14.433594 C 29.589844 15.296875 29.675781 16.171875 29.675781 17.058594 Z M 29.675781 17.058594 " fill-opacity="1" fill-rule="nonzero"/></g><path fill="#ffffff" d="M 17.96875 25.003906 C 17.96875 25.003906 21.597656 27.171875 22.894531 23.828125 C 24.191406 20.488281 26.714844 19.105469 26.714844 19.105469 C 26.714844 19.105469 18.617188 16.914062 16.746094 25.550781 C 17.785156 23.945312 19.625 21.792969 21.703125 21.710938 C 21.703125 21.710938 19.921875 21.886719 17.96875 25.003906 Z M 17.96875 25.003906 " fill-opacity="1" fill-rule="evenodd"/><g clip-path="url(#e7456de3c5)"><path fill="#ffffff" d="M 14.96875 28.464844 C 14.96875 28.464844 6.5625 29.054688 7.265625 21.9375 C 7.972656 14.824219 4.726562 10.09375 4.726562 10.09375 C 4.726562 10.09375 21.105469 13.496094 16.648438 30.539062 C 16.253906 26.742188 14.914062 21.253906 11.292969 19.242188 C 11.292969 19.242188 14.304688 21.15625 14.96875 28.464844 Z M 14.96875 28.464844 " fill-opacity="1" fill-rule="evenodd"/></g></svg>