<svg xmlns="http://www.w3.org/2000/svg" xmlns:xlink="http://www.w3.org/1999/xlink" width="44" zoomAndPan="magnify" viewBox="0 0 33 32.999998" height="44" preserveAspectRatio="xMidYMid meet" version="1.0"><defs><clipPath id="976f108988"><path d="M 3.300781 3.300781 L 29.550781 3.300781 L 29.550781 29.550781 L 3.300781 29.550781 Z M 3.300781 3.300781 " clip-rule="nonzero"/></clipPath></defs><rect x="-3.3" width="39.6" fill="#ffffff" y="-3.3" height="39.599998" fill-opacity="1"/><rect x="-3.3" width="39.6" fill="#ffffff" y="-3.3" height="39.599998" fill-opacity="1"/><g clip-path="url(#976f108988)"><path fill="#4a6244" d="M 16.496094 3.300781 C 9.226562 3.300781 3.300781 9.226562 3.300781 16.496094 C 3.300781 23.765625 9.226562 29.691406 16.496094 29.691406 C 23.765625 29.691406 29.691406 23.765625 29.691406 16.496094 C 29.691406 9.226562 23.765625 3.300781 16.496094 3.300781 Z M 16.496094 27.804688 C 10.253906 27.804688 5.1875 22.738281 5.1875 16.496094 C 5.1875 10.253906 10.253906 5.1875 16.496094 5.1875 C 22.738281 5.1875 27.804688 10.253906 27.804688 16.496094 C 27.804688 22.738281 22.738281 27.804688 16.496094 27.804688 Z M 16.496094 27.804688 " fill-opacity="1" fill-rule="nonzero"/></g><path fill="#4a6244" d="M 13.144531 18.222656 C 12.707031 17.933594 12.589844 17.351562 12.878906 16.917969 C 13.171875 16.480469 13.75 16.363281 14.1875 16.652344 L 15.546875 17.5625 L 15.546875 10.835938 C 15.546875 10.320312 15.96875 9.898438 16.480469 9.898438 C 16.996094 9.898438 17.417969 10.320312 17.417969 10.835938 L 17.417969 17.550781 L 18.777344 16.640625 C 19.214844 16.351562 19.792969 16.46875 20.085938 16.90625 C 20.375 17.339844 20.257812 17.921875 19.820312 18.210938 L 17.023438 20.109375 C 17.011719 20.125 16.996094 20.125 16.984375 20.125 C 16.96875 20.136719 16.957031 20.152344 16.945312 20.152344 C 16.90625 20.175781 16.863281 20.175781 16.824219 20.203125 C 16.796875 20.214844 16.773438 20.230469 16.746094 20.230469 C 16.667969 20.257812 16.585938 20.269531 16.507812 20.269531 C 16.429688 20.269531 16.335938 20.257812 16.257812 20.230469 C 16.230469 20.214844 16.203125 20.214844 16.179688 20.203125 C 16.125 20.175781 16.074219 20.164062 16.019531 20.125 C 16.007812 20.109375 15.992188 20.109375 15.980469 20.109375 Z M 13.144531 18.222656 " fill-opacity="1" fill-rule="nonzero"/><path fill="#4a6244" d="M 22.15625 22.15625 C 22.15625 22.671875 21.734375 23.09375 21.21875 23.09375 L 11.785156 23.09375 C 11.269531 23.09375 10.847656 22.671875 10.847656 22.15625 C 10.847656 21.640625 11.269531 21.21875 11.785156 21.21875 L 21.207031 21.21875 C 21.734375 21.207031 22.15625 21.628906 22.15625 22.15625 Z M 22.15625 22.15625 " fill-opacity="1" fill-rule="nonzero"/></svg>