<svg xmlns="http://www.w3.org/2000/svg" xmlns:xlink="http://www.w3.org/1999/xlink" width="44" zoomAndPan="magnify" viewBox="0 0 33 32.999998" height="44" preserveAspectRatio="xMidYMid meet" version="1.0"><defs><clipPath id="4745ddc194"><path d="M 7 1.710938 L 22 1.710938 L 22 28 L 7 28 Z M 7 1.710938 " clip-rule="nonzero"/></clipPath><clipPath id="0bdfbfacc5"><path d="M 4.648438 16 L 9 16 L 9 21 L 4.648438 21 Z M 4.648438 16 " clip-rule="nonzero"/></clipPath><clipPath id="2dfd9a6b96"><path d="M 4.648438 11 L 9 11 L 9 16 L 4.648438 16 Z M 4.648438 11 " clip-rule="nonzero"/></clipPath><clipPath id="1343b9fb72"><path d="M 4.648438 5 L 9 5 L 9 10 L 4.648438 10 Z M 4.648438 5 " clip-rule="nonzero"/></clipPath><clipPath id="91904146c5"><path d="M 4.648438 18 L 9 18 L 9 23 L 4.648438 23 Z M 4.648438 18 " clip-rule="nonzero"/></clipPath><clipPath id="6c466389dc"><path d="M 12 25 L 18 25 L 18 30.960938 L 12 30.960938 Z M 12 25 " clip-rule="nonzero"/></clipPath><clipPath id="3dbbb2c64e"><path d="M 19 4 L 30.898438 4 L 30.898438 30 L 19 30 Z M 19 4 " clip-rule="nonzero"/></clipPath></defs><rect x="-3.3" width="39.6" fill="#ffffff" y="-3.3" height="39.599998" fill-opacity="1"/><rect x="-3.3" width="39.6" fill="#ffffff" y="-3.3" height="39.599998" fill-opacity="1"/><path fill="#4a6244" d="M 10.527344 12.90625 C 10.140625 12.90625 9.832031 12.597656 9.832031 12.210938 L 9.832031 11.453125 C 9.832031 11.070312 10.140625 10.757812 10.527344 10.757812 L 11.285156 10.757812 C 11.667969 10.757812 11.980469 11.070312 11.980469 11.453125 C 11.980469 11.839844 11.667969 12.148438 11.285156 12.148438 L 11.222656 12.148438 L 11.222656 12.210938 C 11.222656 12.597656 10.910156 12.90625 10.527344 12.90625 Z M 10.527344 12.90625 " fill-opacity="1" fill-rule="nonzero"/><path fill="#4a6244" d="M 11.285156 19.46875 L 10.527344 19.46875 C 10.140625 19.46875 9.832031 19.15625 9.832031 18.773438 L 9.832031 18.015625 C 9.832031 17.628906 10.140625 17.320312 10.527344 17.320312 C 10.910156 17.320312 11.222656 17.628906 11.222656 18.015625 L 11.222656 18.078125 L 11.285156 18.078125 C 11.667969 18.078125 11.980469 18.386719 11.980469 18.773438 C 11.980469 19.15625 11.667969 19.46875 11.285156 19.46875 Z M 11.285156 19.46875 " fill-opacity="1" fill-rule="nonzero"/><path fill="#4a6244" d="M 17.84375 19.46875 L 17.085938 19.46875 C 16.703125 19.46875 16.390625 19.15625 16.390625 18.773438 C 16.390625 18.386719 16.703125 18.078125 17.085938 18.078125 L 17.148438 18.078125 L 17.148438 18.015625 C 17.148438 17.628906 17.457031 17.320312 17.84375 17.320312 C 18.226562 17.320312 18.539062 17.628906 18.539062 18.015625 L 18.539062 18.773438 C 18.539062 19.15625 18.226562 19.46875 17.84375 19.46875 Z M 17.84375 19.46875 " fill-opacity="1" fill-rule="nonzero"/><path fill="#4a6244" d="M 17.84375 12.90625 C 17.457031 12.90625 17.148438 12.597656 17.148438 12.210938 L 17.148438 12.148438 L 17.085938 12.148438 C 16.703125 12.148438 16.390625 11.839844 16.390625 11.453125 C 16.390625 11.070312 16.703125 10.757812 17.085938 10.757812 L 17.84375 10.757812 C 18.226562 10.757812 18.539062 11.070312 18.539062 11.453125 L 18.539062 12.210938 C 18.539062 12.597656 18.226562 12.90625 17.84375 12.90625 Z M 17.84375 12.90625 " fill-opacity="1" fill-rule="nonzero"/><g clip-path="url(#4745ddc194)"><path fill="#4a6244" d="M 18.679688 27.175781 L 9.691406 27.175781 C 8.242188 27.175781 7.066406 26 7.066406 24.554688 L 7.066406 4.382812 C 7.066406 2.933594 8.242188 1.757812 9.691406 1.757812 L 18.679688 1.757812 C 20.125 1.757812 21.300781 2.933594 21.300781 4.382812 L 21.300781 24.554688 C 21.300781 26 20.125 27.175781 18.679688 27.175781 Z M 9.691406 3.152344 C 9.011719 3.152344 8.460938 3.703125 8.460938 4.382812 L 8.460938 24.554688 C 8.460938 25.234375 9.011719 25.785156 9.691406 25.785156 L 18.679688 25.785156 C 19.359375 25.785156 19.910156 25.230469 19.910156 24.554688 L 19.910156 4.382812 C 19.910156 3.703125 19.355469 3.152344 18.679688 3.152344 Z M 9.691406 3.152344 " fill-opacity="1" fill-rule="nonzero"/></g><path fill="#4a6244" d="M 15.546875 6.042969 L 12.820312 6.042969 C 12.4375 6.042969 12.125 5.730469 12.125 5.347656 C 12.125 4.960938 12.4375 4.652344 12.820312 4.652344 L 15.546875 4.652344 C 15.929688 4.652344 16.242188 4.960938 16.242188 5.347656 C 16.242188 5.730469 15.929688 6.042969 15.546875 6.042969 Z M 15.546875 6.042969 " fill-opacity="1" fill-rule="nonzero"/><g clip-path="url(#0bdfbfacc5)"><path fill="#4a6244" d="M 7.761719 20.265625 L 6.617188 20.265625 C 5.53125 20.265625 4.648438 19.382812 4.648438 18.296875 L 4.648438 18.171875 C 4.648438 17.085938 5.53125 16.203125 6.617188 16.203125 L 7.761719 16.203125 C 8.148438 16.203125 8.457031 16.511719 8.457031 16.898438 L 8.457031 19.570312 C 8.457031 19.953125 8.148438 20.265625 7.761719 20.265625 Z M 6.617188 17.59375 C 6.300781 17.59375 6.039062 17.855469 6.039062 18.171875 L 6.039062 18.296875 C 6.039062 18.613281 6.300781 18.875 6.617188 18.875 L 7.066406 18.875 L 7.066406 17.59375 Z M 6.617188 17.59375 " fill-opacity="1" fill-rule="nonzero"/></g><g clip-path="url(#2dfd9a6b96)"><path fill="#4a6244" d="M 7.761719 15.164062 L 6.617188 15.164062 C 5.53125 15.164062 4.648438 14.28125 4.648438 13.195312 L 4.648438 13.066406 C 4.648438 11.980469 5.53125 11.097656 6.617188 11.097656 L 7.761719 11.097656 C 8.148438 11.097656 8.457031 11.410156 8.457031 11.792969 L 8.457031 14.464844 C 8.457031 14.851562 8.148438 15.160156 7.761719 15.160156 Z M 6.617188 12.492188 C 6.300781 12.492188 6.039062 12.75 6.039062 13.066406 L 6.039062 13.195312 C 6.039062 13.511719 6.300781 13.769531 6.617188 13.769531 L 7.066406 13.769531 L 7.066406 12.492188 Z M 6.617188 12.492188 " fill-opacity="1" fill-rule="nonzero"/></g><g clip-path="url(#1343b9fb72)"><path fill="#4a6244" d="M 7.761719 9.894531 L 6.617188 9.894531 C 5.53125 9.894531 4.648438 9.011719 4.648438 7.925781 L 4.648438 7.796875 C 4.648438 6.710938 5.53125 5.828125 6.617188 5.828125 L 7.761719 5.828125 C 8.148438 5.828125 8.457031 6.140625 8.457031 6.523438 L 8.457031 9.195312 C 8.457031 9.582031 8.148438 9.890625 7.761719 9.890625 Z M 6.617188 7.222656 C 6.300781 7.222656 6.039062 7.480469 6.039062 7.796875 L 6.039062 7.925781 C 6.039062 8.242188 6.300781 8.5 6.617188 8.5 L 7.066406 8.5 L 7.066406 7.222656 Z M 6.617188 7.222656 " fill-opacity="1" fill-rule="nonzero"/></g><g clip-path="url(#91904146c5)"><path fill="#4a6244" d="M 7.761719 22.941406 L 6.617188 22.941406 C 5.53125 22.941406 4.648438 22.054688 4.648438 20.972656 L 4.648438 20.84375 C 4.648438 19.757812 5.53125 18.875 6.617188 18.875 L 7.761719 18.875 C 8.148438 18.875 8.457031 19.1875 8.457031 19.570312 L 8.457031 22.242188 C 8.457031 22.628906 8.148438 22.9375 7.761719 22.9375 Z M 6.617188 20.265625 C 6.300781 20.265625 6.039062 20.527344 6.039062 20.84375 L 6.039062 20.972656 C 6.039062 21.289062 6.300781 21.546875 6.617188 21.546875 L 7.066406 21.546875 L 7.066406 20.265625 Z M 6.617188 20.265625 " fill-opacity="1" fill-rule="nonzero"/></g><g clip-path="url(#6c466389dc)"><path fill="#4a6244" d="M 17.144531 31.230469 C 16.933594 31.230469 16.726562 31.136719 16.589844 30.953125 L 16.167969 30.398438 C 13.457031 29.496094 12.941406 26.832031 12.917969 26.714844 C 12.847656 26.339844 13.101562 25.976562 13.476562 25.90625 C 13.851562 25.839844 14.214844 26.085938 14.285156 26.464844 C 14.304688 26.558594 14.71875 28.546875 16.777344 29.132812 C 16.921875 29.171875 17.050781 29.261719 17.140625 29.382812 L 17.699219 30.113281 C 17.929688 30.421875 17.871094 30.859375 17.566406 31.089844 C 17.4375 31.183594 17.292969 31.230469 17.144531 31.230469 Z M 17.144531 31.230469 " fill-opacity="1" fill-rule="nonzero"/></g><g clip-path="url(#3dbbb2c64e)"><path fill="#4a6244" d="M 30.339844 29.226562 C 30.121094 29.226562 29.902344 29.121094 29.765625 28.925781 L 27.316406 25.363281 C 27.296875 25.332031 27.277344 25.300781 27.261719 25.269531 L 26.542969 23.765625 C 26.507812 23.691406 26.484375 23.613281 26.476562 23.527344 L 26.066406 19.214844 C 25.953125 18.015625 25.695312 16.839844 25.300781 15.703125 L 23.5 10.574219 C 23.058594 9.324219 22.835938 8.019531 22.835938 6.695312 L 22.835938 6.097656 L 22.792969 6.074219 C 22 6.457031 21.304688 7.566406 21.304688 8.445312 L 21.304688 8.632812 C 21.304688 9.015625 20.992188 9.328125 20.609375 9.328125 C 20.226562 9.328125 19.914062 9.015625 19.914062 8.632812 L 19.914062 8.445312 C 19.914062 7.027344 20.914062 5.4375 22.191406 4.820312 C 22.636719 4.605469 23.148438 4.636719 23.566406 4.898438 C 23.980469 5.160156 24.230469 5.609375 24.230469 6.101562 L 24.230469 6.699219 C 24.230469 7.863281 24.425781 9.015625 24.816406 10.117188 L 26.613281 15.246094 C 27.046875 16.484375 27.332031 17.777344 27.457031 19.085938 L 27.855469 23.277344 L 28.496094 24.621094 L 30.917969 28.136719 C 31.136719 28.453125 31.054688 28.886719 30.738281 29.105469 C 30.617188 29.1875 30.480469 29.230469 30.34375 29.230469 Z M 30.339844 29.226562 " fill-opacity="1" fill-rule="nonzero"/></g><path fill="#4a6244" d="M 20.605469 21.644531 C 20.578125 21.644531 20.546875 21.644531 20.515625 21.636719 C 20.132812 21.589844 19.867188 21.242188 19.914062 20.859375 L 20.574219 15.800781 C 20.644531 15.28125 20.582031 14.75 20.402344 14.257812 C 20.078125 13.378906 19.910156 12.457031 19.910156 11.519531 C 19.910156 11.136719 20.222656 10.824219 20.605469 10.824219 C 20.988281 10.824219 21.300781 11.136719 21.300781 11.519531 C 21.300781 12.292969 21.4375 13.050781 21.703125 13.773438 C 21.964844 14.476562 22.050781 15.238281 21.953125 15.980469 L 21.292969 21.039062 C 21.25 21.390625 20.949219 21.644531 20.605469 21.644531 Z M 20.605469 21.644531 " fill-opacity="1" fill-rule="nonzero"/><path fill="#4a6244" d="M 17.84375 15.808594 L 10.527344 15.808594 C 10.140625 15.808594 9.832031 15.5 9.832031 15.113281 C 9.832031 14.730469 10.140625 14.417969 10.527344 14.417969 L 17.84375 14.417969 C 18.226562 14.417969 18.539062 14.730469 18.539062 15.113281 C 18.539062 15.5 18.226562 15.808594 17.84375 15.808594 Z M 17.84375 15.808594 " fill-opacity="1" fill-rule="nonzero"/></svg>