<svg xmlns="http://www.w3.org/2000/svg" xmlns:xlink="http://www.w3.org/1999/xlink" width="44" zoomAndPan="magnify" viewBox="0 0 33 32.999998" height="44" preserveAspectRatio="xMidYMid meet" version="1.0"><defs><clipPath id="f97047e33c"><path d="M 4.671875 2.203125 L 28.671875 2.203125 L 28.671875 30.703125 L 4.671875 30.703125 Z M 4.671875 2.203125 " clip-rule="nonzero"/></clipPath></defs><g clip-path="url(#f97047e33c)"><path fill="#aa5c5c" d="M 27.828125 14.03125 L 23.542969 14.03125 L 23.542969 9.253906 C 23.542969 5.359375 20.390625 2.207031 16.496094 2.207031 C 12.605469 2.207031 9.453125 5.359375 9.453125 9.253906 L 9.453125 14.03125 L 5.164062 14.03125 C 4.871094 14.03125 4.671875 14.226562 4.671875 14.523438 L 4.671875 30.289062 C 4.671875 30.585938 4.871094 30.78125 5.164062 30.78125 L 27.828125 30.78125 C 28.125 30.78125 28.320312 30.585938 28.320312 30.289062 L 28.320312 14.523438 C 28.320312 14.226562 28.125 14.03125 27.828125 14.03125 Z M 10.4375 9.253906 C 10.4375 5.902344 13.148438 3.191406 16.496094 3.191406 C 19.847656 3.191406 22.558594 5.902344 22.558594 9.253906 L 22.558594 14.03125 L 10.4375 14.03125 Z M 17.976562 22.40625 L 17.976562 25.363281 C 17.976562 26.199219 17.335938 26.839844 16.496094 26.839844 C 15.660156 26.839844 15.019531 26.199219 15.019531 25.363281 L 15.019531 22.40625 C 14.429688 21.964844 14.035156 21.222656 14.035156 20.4375 C 14.035156 19.054688 15.117188 17.972656 16.496094 17.972656 C 17.875 17.972656 18.960938 19.054688 18.960938 20.4375 C 18.960938 21.222656 18.566406 21.914062 17.976562 22.40625 Z M 17.976562 22.40625 " fill-opacity="1" fill-rule="nonzero"/></g><path fill="#aa5c5c" d="M 16.496094 18.957031 C 15.660156 18.957031 15.019531 19.597656 15.019531 20.4375 C 15.019531 20.976562 15.316406 21.421875 15.757812 21.714844 C 15.90625 21.816406 16.003906 21.964844 16.003906 22.160156 L 16.003906 25.363281 C 16.003906 25.65625 16.203125 25.855469 16.496094 25.855469 C 16.792969 25.855469 16.988281 25.65625 16.988281 25.363281 L 16.988281 22.109375 C 16.988281 21.914062 17.089844 21.765625 17.234375 21.667969 C 17.679688 21.421875 17.976562 20.976562 17.976562 20.4375 C 17.976562 19.597656 17.335938 18.957031 16.496094 18.957031 Z M 16.496094 18.957031 " fill-opacity="1" fill-rule="nonzero"/></svg>