<svg xmlns="http://www.w3.org/2000/svg" xmlns:xlink="http://www.w3.org/1999/xlink" width="44" zoomAndPan="magnify" viewBox="0 0 33 32.999998" height="44" preserveAspectRatio="xMidYMid meet" version="1.0"><defs><clipPath id="a46fed22dd"><path d="M 3.300781 4.351562 L 28.800781 4.351562 L 28.800781 30.601562 L 3.300781 30.601562 Z M 3.300781 4.351562 " clip-rule="nonzero"/></clipPath></defs><g clip-path="url(#a46fed22dd)"><path fill="#4a6244" d="M 22.964844 7.695312 C 22.960938 7.066406 23.183594 6.527344 23.632812 6.082031 L 25.25 4.464844 L 26.863281 6.082031 C 27.074219 6.296875 27.242188 6.542969 27.355469 6.820312 C 27.472656 7.101562 27.53125 7.394531 27.53125 7.695312 C 27.53125 8 27.472656 8.289062 27.355469 8.570312 C 27.242188 8.851562 27.074219 9.097656 26.863281 9.3125 C 26.535156 9.636719 26.144531 9.847656 25.691406 9.9375 C 25.238281 10.027344 24.800781 9.984375 24.375 9.808594 C 23.945312 9.628906 23.605469 9.351562 23.347656 8.964844 C 23.09375 8.582031 22.964844 8.160156 22.964844 7.695312 Z M 8.085938 28.214844 C 8.085938 28.503906 8.140625 28.78125 8.25 29.050781 C 8.363281 29.316406 8.519531 29.554688 8.726562 29.757812 C 8.929688 29.964844 9.167969 30.121094 9.433594 30.230469 C 9.699219 30.34375 9.980469 30.398438 10.269531 30.398438 L 10.308594 30.398438 C 10.597656 30.398438 10.878906 30.34375 11.144531 30.230469 C 11.414062 30.121094 11.648438 29.964844 11.855469 29.757812 C 12.058594 29.554688 12.214844 29.316406 12.328125 29.050781 C 12.4375 28.78125 12.492188 28.503906 12.492188 28.214844 L 12.492188 26.953125 L 8.085938 24.40625 Z M 16.15625 24.304688 C 16.09375 24.339844 16.03125 24.355469 15.960938 24.355469 C 15.890625 24.355469 15.824219 24.339844 15.765625 24.304688 L 13.277344 22.871094 L 13.277344 25.050781 C 13.277344 25.160156 13.238281 25.25 13.160156 25.328125 C 13.085938 25.402344 12.992188 25.441406 12.886719 25.441406 C 12.777344 25.441406 12.683594 25.402344 12.609375 25.328125 C 12.53125 25.25 12.492188 25.160156 12.492188 25.050781 L 12.492188 22.417969 L 8.085938 19.871094 L 8.085938 22.054688 C 8.085938 22.160156 8.046875 22.253906 7.96875 22.332031 C 7.894531 22.40625 7.800781 22.445312 7.691406 22.445312 C 7.585938 22.445312 7.492188 22.40625 7.414062 22.332031 C 7.339844 22.253906 7.300781 22.160156 7.300781 22.054688 L 7.300781 19.417969 L 6.445312 18.925781 L 3.300781 20.742188 L 7.9375 23.417969 L 13.085938 26.390625 L 13.089844 26.390625 L 15.960938 28.046875 L 28.617188 20.742188 L 25.472656 18.925781 Z M 16.15625 19.769531 C 16.09375 19.804688 16.027344 19.820312 15.960938 19.820312 C 15.890625 19.820312 15.824219 19.804688 15.765625 19.769531 L 13.277344 18.335938 L 13.277344 20.519531 C 13.277344 20.625 13.238281 20.71875 13.160156 20.792969 C 13.085938 20.871094 12.992188 20.910156 12.886719 20.910156 C 12.777344 20.910156 12.683594 20.871094 12.609375 20.792969 C 12.53125 20.71875 12.492188 20.625 12.492188 20.519531 L 12.492188 17.882812 L 8.085938 15.339844 L 8.085938 17.519531 C 8.085938 17.589844 8.066406 17.652344 8.03125 17.714844 C 7.933594 17.890625 7.785156 17.949219 7.589844 17.898438 C 7.398438 17.84375 7.300781 17.71875 7.300781 17.519531 L 7.300781 14.882812 L 6.445312 14.390625 L 3.300781 16.207031 L 7.890625 18.851562 L 13.085938 21.851562 L 13.089844 21.855469 L 15.960938 23.511719 L 28.617188 16.207031 L 25.472656 14.390625 Z M 26.546875 10.476562 L 28.617188 11.671875 L 15.960938 18.976562 L 13.089844 17.320312 L 13.085938 17.316406 L 7.917969 14.335938 L 3.300781 11.671875 L 5.414062 10.453125 C 5.652344 10.695312 5.945312 10.816406 6.285156 10.816406 L 7.300781 10.816406 L 7.300781 12.152344 C 7.300781 12.300781 7.367188 12.414062 7.496094 12.488281 L 12.6875 15.535156 C 12.746094 15.574219 12.8125 15.589844 12.886719 15.589844 C 12.992188 15.589844 13.085938 15.550781 13.164062 15.476562 C 13.238281 15.398438 13.277344 15.304688 13.277344 15.199219 L 13.277344 10.816406 L 14.292969 10.816406 C 14.53125 10.816406 14.753906 10.75 14.953125 10.621094 C 15.15625 10.492188 15.308594 10.320312 15.40625 10.105469 C 15.507812 9.886719 15.542969 9.660156 15.511719 9.425781 C 15.480469 9.1875 15.390625 8.976562 15.238281 8.792969 L 15.230469 8.78125 L 15.21875 8.773438 L 12.933594 6.113281 L 15.960938 4.363281 L 22.195312 7.960938 C 22.214844 8.207031 22.265625 8.449219 22.34375 8.683594 C 22.421875 8.917969 22.527344 9.136719 22.660156 9.34375 C 22.792969 9.554688 22.949219 9.742188 23.125 9.914062 C 23.304688 10.085938 23.5 10.230469 23.714844 10.355469 C 23.925781 10.476562 24.152344 10.574219 24.390625 10.644531 C 24.625 10.710938 24.867188 10.753906 25.113281 10.761719 C 25.363281 10.773438 25.605469 10.753906 25.847656 10.707031 C 26.089844 10.65625 26.320312 10.582031 26.546875 10.476562 Z M 22.414062 12.445312 C 22.417969 11.8125 22.195312 11.273438 21.746094 10.828125 L 20.410156 9.492188 C 20.335938 9.417969 20.242188 9.378906 20.136719 9.378906 C 20.027344 9.378906 19.933594 9.414062 19.855469 9.492188 L 18.523438 10.828125 C 18.390625 10.960938 18.273438 11.109375 18.175781 11.269531 C 18.082031 11.429688 18.003906 11.601562 17.949219 11.78125 C 17.894531 11.960938 17.863281 12.144531 17.855469 12.332031 C 17.84375 12.519531 17.859375 12.703125 17.894531 12.886719 C 17.929688 13.074219 17.988281 13.25 18.070312 13.417969 C 18.148438 13.589844 18.25 13.746094 18.367188 13.890625 C 18.488281 14.039062 18.621094 14.164062 18.773438 14.277344 C 18.921875 14.390625 19.085938 14.480469 19.257812 14.554688 C 19.433594 14.625 19.613281 14.675781 19.796875 14.703125 C 19.984375 14.730469 20.167969 14.734375 20.355469 14.714844 C 20.542969 14.699219 20.722656 14.65625 20.902344 14.59375 C 21.078125 14.53125 21.246094 14.449219 21.402344 14.34375 C 21.558594 14.238281 21.699219 14.117188 21.824219 13.976562 C 21.949219 13.839844 22.058594 13.6875 22.144531 13.519531 C 22.234375 13.355469 22.300781 13.179688 22.347656 13 C 22.390625 12.816406 22.414062 12.632812 22.414062 12.445312 Z M 20.136719 10.324219 L 19.074219 11.386719 C 18.933594 11.527344 18.828125 11.6875 18.75 11.871094 C 18.675781 12.054688 18.636719 12.246094 18.636719 12.441406 C 18.636719 12.640625 18.675781 12.832031 18.753906 13.015625 C 18.828125 13.199219 18.9375 13.359375 19.078125 13.5 C 19.21875 13.640625 19.378906 13.75 19.5625 13.824219 C 19.746094 13.898438 19.9375 13.9375 20.132812 13.9375 C 20.332031 13.9375 20.523438 13.898438 20.707031 13.824219 C 20.890625 13.75 21.050781 13.640625 21.191406 13.5 C 21.332031 13.359375 21.441406 13.199219 21.515625 13.015625 C 21.59375 12.832031 21.628906 12.640625 21.628906 12.441406 C 21.628906 12.246094 21.59375 12.054688 21.519531 11.871094 C 21.441406 11.6875 21.335938 11.527344 21.195312 11.386719 Z M 12.492188 14.511719 L 12.492188 10.425781 C 12.492188 10.316406 12.53125 10.222656 12.609375 10.148438 C 12.683594 10.070312 12.777344 10.035156 12.886719 10.035156 L 14.292969 10.035156 C 14.484375 10.03125 14.617188 9.945312 14.699219 9.769531 C 14.777344 9.597656 14.753906 9.4375 14.632812 9.292969 L 10.628906 4.632812 C 10.539062 4.527344 10.425781 4.476562 10.289062 4.476562 C 10.152344 4.476562 10.039062 4.527344 9.949219 4.632812 L 5.949219 9.292969 C 5.820312 9.4375 5.796875 9.597656 5.878906 9.769531 C 5.957031 9.949219 6.09375 10.035156 6.285156 10.035156 L 7.695312 10.035156 C 7.800781 10.035156 7.894531 10.070312 7.96875 10.148438 C 8.046875 10.222656 8.085938 10.316406 8.085938 10.425781 L 8.085938 11.925781 Z M 12.492188 14.511719 " fill-opacity="1" fill-rule="nonzero"/></g></svg>