<svg xmlns="http://www.w3.org/2000/svg" xmlns:xlink="http://www.w3.org/1999/xlink" width="44" zoomAndPan="magnify" viewBox="0 0 33 32.999998" height="44" preserveAspectRatio="xMidYMid meet" version="1.0"><defs><clipPath id="db91fa4625"><path d="M 7 3.300781 L 26 3.300781 L 26 29.550781 L 7 29.550781 Z M 7 3.300781 " clip-rule="nonzero"/></clipPath></defs><g clip-path="url(#db91fa4625)"><path fill="#4a6244" d="M 7.65625 3.308594 C 13.40625 6.25 31.765625 6.820312 23.453125 24.875 C 23.992188 25.9375 24.792969 27.144531 25.523438 28.390625 C 25.96875 29.148438 24.160156 29.679688 23.972656 29.066406 C 22.824219 25.300781 17.113281 13.171875 11.503906 8.261719 C 12.546875 9.546875 13.792969 11.300781 15.074219 13.3125 C 13.113281 12.824219 12.566406 12.46875 10.792969 11.339844 C 12.3125 12.992188 13.515625 13.457031 15.539062 14.050781 C 16.304688 15.285156 17.078125 16.597656 17.820312 17.953125 C 15.320312 17.480469 12.988281 16.3125 10.980469 14.992188 C 12.898438 17.117188 15.949219 18.171875 18.261719 18.765625 C 19.046875 20.238281 19.789062 21.746094 20.441406 23.230469 C 17.976562 22.929688 14.160156 21.917969 12.257812 20.519531 C 13.789062 22.488281 18.546875 23.621094 20.789062 24.03125 C 21.046875 24.644531 21.292969 25.257812 21.515625 25.859375 C 3.300781 24.804688 10.496094 11.953125 7.65625 3.308594 Z M 13.675781 7.511719 C 14.65625 8.886719 14.753906 9.808594 14.855469 11.277344 C 14.6875 11.058594 14.519531 10.847656 14.351562 10.636719 C 14.308594 9.421875 14.207031 8.929688 13.675781 7.511719 Z M 20.902344 11.671875 C 21.851562 15.449219 21.332031 17.902344 20.4375 20.234375 C 20.605469 20.558594 20.769531 20.882812 20.933594 21.199219 C 22.261719 17.78125 22.214844 13.976562 20.902344 11.675781 Z M 17.40625 9.488281 C 18.300781 11.300781 18.15625 13.6875 17.96875 15.859375 C 17.78125 15.550781 17.59375 15.246094 17.398438 14.941406 C 17.636719 13.160156 17.746094 11.503906 17.40625 9.488281 Z M 17.40625 9.488281 " fill-opacity="1" fill-rule="evenodd"/></g></svg>