<svg xmlns="http://www.w3.org/2000/svg" viewBox="0 0 1200 520" role="img" aria-label="Hero illustration for: Reduce Microplastics from Laundry">
  <defs>
    <linearGradient id="bg-rmfl" x1="0" y1="0" x2="0" y2="1">
      <stop offset="0%" stop-color="#f4f1ea"/>
      <stop offset="100%" stop-color="#e6e1d3"/>
    </linearGradient>
  </defs>
  <rect width="1200" height="520" fill="url(#bg-rmfl)" rx="12"/>
  <!-- corner hex motifs -->
  <g stroke="#c9c0ab" stroke-width="1.5" fill="none" opacity="0.45">
    <polygon points="80,60 108,44 136,60 136,92 108,108 80,92"/>
    <line x1="136" y1="76" x2="168" y2="76"/>
    <circle cx="178" cy="76" r="8"/>
    <polygon points="1064,428 1092,412 1120,428 1120,460 1092,476 1064,460"/>
    <line x1="1120" y1="444" x2="1152" y2="444"/>
    <circle cx="1162" cy="444" r="8"/>
    <polygon points="1090,55 1112,43 1134,55 1134,79 1112,91 1090,79"/>
    <polygon points="66,420 88,408 110,420 110,444 88,456 66,444"/>
  </g>

  <g transform="translate(370,100)">
    <rect x="50" y="0" width="220" height="240" rx="30" fill="#4a6d4a" opacity="0.7" stroke="#2D4A3E" stroke-width="2.5"/>
    <circle cx="160" cy="130" r="80" fill="#f4f1ea" opacity="0.5" stroke="#2D4A3E" stroke-width="2"/>
    <circle cx="160" cy="130" r="55" fill="none" stroke="#7a9b6e" stroke-width="2" stroke-dasharray="8,4"/>
    <text x="160" y="136" text-anchor="middle" font-family="Helvetica,sans-serif" font-size="11" fill="#2D4A3E">Cold wash</text>
    <rect x="50" y="30" width="220" height="14" rx="7" fill="#2D4A3E" opacity="0.4"/>
    <g font-family="Helvetica,sans-serif" font-size="12" fill="#2d3a2d">
      <text x="330" y="120">→ Cold water</text>
      <text x="330" y="150">→ Guppy bag</text>
      <text x="330" y="180">→ Gentle cycle</text>
      <text x="330" y="210">→ Air dry</text>
    </g>
  </g>
  <text x="600" y="430" text-anchor="middle" font-family="Georgia,serif" font-size="17" fill="#2d3a2d" opacity="0.6">Reducing Microplastics from Laundry</text>

</svg>